<?xml version="1.0" encoding="UTF-8" standalone="no"?>
<!-- Created with Inkscape (http://www.inkscape.org/) -->

<svg
   version="1.1"
   id="svg1"
   width="901.33331"
   height="264"
   viewBox="0 0 901.33331 264"
   sodipodi:docname="modules_final_black.svg"
   inkscape:version="1.4 (e7c3feb100, 2024-10-09)"
   xmlns:inkscape="http://www.inkscape.org/namespaces/inkscape"
   xmlns:sodipodi="http://sodipodi.sourceforge.net/DTD/sodipodi-0.dtd"
   xmlns="http://www.w3.org/2000/svg"
   xmlns:svg="http://www.w3.org/2000/svg">
  <defs
     id="defs1" />
  <sodipodi:namedview
     id="namedview1"
     pagecolor="#ffffff"
     bordercolor="#666666"
     borderopacity="1.0"
     inkscape:showpageshadow="2"
     inkscape:pageopacity="0.0"
     inkscape:pagecheckerboard="0"
     inkscape:deskcolor="#d1d1d1"
     inkscape:zoom="1.0894971"
     inkscape:cx="450.66666"
     inkscape:cy="132.17108"
     inkscape:window-width="1920"
     inkscape:window-height="1011"
     inkscape:window-x="0"
     inkscape:window-y="0"
     inkscape:window-maximized="1"
     inkscape:current-layer="g1">
    <inkscape:page
       x="0"
       y="0"
       inkscape:label="1"
       id="page1"
       width="901.33331"
       height="264"
       margin="0"
       bleed="0" />
  </sodipodi:namedview>
  <g
     id="g1"
     inkscape:groupmode="layer"
     inkscape:label="1">
    <path
       id="path1"
       d="M 2043.14,1577.47 V 1324.2 h 176.59 v 26.77 H 2072.1 v 88.28 h 127.72 v 26.41 H 2072.1 v 85.04 h 142.91 v 26.77 z m 434.25,0 V 1324.2 h 28.95 v 205.5 l 151.96,-205.5 h 29.67 v 253.27 h -28.58 v -205.88 l -151.97,205.88 z m 450.16,0 102.77,-253.27 h 30.03 l 103.48,253.27 h -30.39 l -87.56,-220.71 -87.21,220.71 z m 475.49,0 V 1324.2 H 3432 v 253.27 z m 502.98,-253.27 -59.7,86.47 c 36.55,11.59 57.18,40.17 57.18,81.77 0,53.91 -36.54,85.03 -99.86,85.03 h -96.26 V 1324.2 h 28.96 v 80.32 h 67.3 c 5.78,0 11.21,0.36 16.27,0.72 l 53.19,-81.04 z m -169.68,107.1 v 119.4 h 67.3 c 45.95,0 72,-20.26 72,-58.98 0,-39.81 -26.05,-60.42 -72,-60.42 z m 540.26,146.89 c -74.18,0 -132.8,-56.08 -132.8,-127.35 0,-71.29 58.62,-127.73 132.8,-127.73 73.81,0 132.42,56.44 132.42,127.73 0,71.27 -58.61,127.35 -132.42,127.35 z m 0,-26.78 c 56.44,0 102.75,-44.5 102.75,-100.57 0,-56.08 -46.31,-101.31 -102.75,-101.31 -56.45,0 -103.48,45.23 -103.48,101.31 0,56.07 47.03,100.57 103.48,100.57 z m 383.94,26.06 V 1324.2 h 28.95 v 205.5 l 151.96,-205.5 h 29.67 v 253.27 h -28.58 v -205.88 l -151.97,205.88 z m 486.34,0 V 1324.2 h 27.51 v 210.58 l 91.9,-183.81 h 17.37 l 92.26,183.81 0.36,-210.58 h 26.78 v 253.27 h -35.47 l -92.25,-183.81 -92.63,183.81 z m 531.94,0 V 1324.2 h 176.58 v 26.77 h -147.62 v 88.28 h 127.71 v 26.41 h -127.71 v 85.04 h 142.91 v 26.77 z m 434.24,0 V 1324.2 h 28.96 v 205.5 l 151.95,-205.5 h 29.68 v 253.27 h -28.58 v -205.88 l -151.97,205.88 z m 451.99,0 v -26.77 h 82.49 v -226.5 h 28.95 v 226.5 h 82.85 v 26.77 h -194.29"
       style="fill:#000000;fill-opacity:1;fill-rule:nonzero;stroke:none"
       transform="matrix(0.13333333,0,0,-0.13333333,0,264)" />
    <path
       id="path2"
       d="M 2634.29,878.453 2457.36,520.855 h -87.04 L 2194.3,878.453 V 466.559 h -146.03 v 654.351 h 197.53 l 168.5,-359.484 169.44,359.484 h 196.59 V 466.559 h -146.04 z m 807.88,-80.976 c 0,58.363 -18.72,108.128 -56.16,149.312 -37.46,41.203 -83.48,61.781 -138.08,61.781 -54.61,0 -100.63,-20.578 -138.09,-61.781 -37.44,-41.184 -56.16,-90.949 -56.16,-149.312 0,-58.336 18.72,-107.977 56.16,-148.84 37.46,-40.883 83.48,-61.313 138.09,-61.313 54.6,0 100.62,20.43 138.08,61.313 37.44,40.863 56.16,90.504 56.16,148.84 z m 49.61,-240.571 c -66.15,-64.617 -147.6,-96.898 -244.32,-96.898 -96.74,0 -178.19,32.281 -244.33,96.898 -66.15,64.586 -99.23,144.946 -99.23,241.043 0,96.098 33.08,176.457 99.23,241.041 66.14,64.61 147.59,96.9 244.33,96.9 96.72,0 178.17,-32.29 244.32,-96.9 66.15,-64.584 99.23,-144.943 99.23,-241.041 0,-96.097 -33.08,-176.457 -99.23,-241.043 z m 454.02,564.004 c 116.71,0 206.26,-28.53 268.67,-85.66 62.41,-57.102 93.62,-136.516 93.62,-238.242 0,-101.731 -30.43,-182.238 -91.27,-241.52 -60.84,-59.277 -153.69,-88.929 -278.5,-88.929 h -223.74 v 654.351 z m 7.49,-525.176 c 66.77,0 118.12,16.86 154,50.551 35.9,33.719 53.82,82.707 53.82,146.977 0,64.293 -17.92,113.754 -53.82,148.386 -35.88,34.641 -90.97,51.946 -165.23,51.946 h -81.45 v -397.86 z m 654.36,39.789 c 24.34,-30.269 57.1,-45.398 98.3,-45.398 41.18,0 73.79,15.129 97.82,45.398 24.02,30.274 36.04,71.629 36.04,124.047 v 361.34 h 146.04 V 754.883 c 0,-94.863 -26.21,-167.731 -78.65,-218.586 -52.41,-50.871 -119.5,-76.289 -201.25,-76.289 -81.77,0 -149.01,25.586 -201.74,76.765 -52.74,51.172 -79.1,123.868 -79.1,218.11 v 366.027 h 146.04 V 759.57 c 0,-52.418 12.15,-93.773 36.5,-124.047 z m 529.86,-168.964 v 654.351 h 146.04 V 596.672 h 278.97 V 466.559 Z M 6141.06,1120.91 V 990.789 H 5815.27 V 855.992 h 293.01 V 731.477 H 5815.27 V 595.734 h 336.08 V 466.559 h -482.12 v 654.351 z m 351.03,-113.26 c -24.32,0 -43.52,-5.77 -57.57,-17.33 -14.04,-11.55 -21.05,-26.824 -21.05,-45.867 0,-19.043 8.58,-34.164 25.73,-45.398 17.16,-11.235 56.81,-24.492 118.89,-39.793 62.11,-15.297 110.31,-38.231 144.64,-68.801 34.32,-30.574 51.48,-75.203 51.48,-133.859 0,-58.668 -22,-106.27 -65.98,-142.766 -44.01,-36.523 -101.9,-54.77 -173.65,-54.77 -103.62,0 -196.91,38.379 -279.92,115.145 l 87.07,106.711 c 70.52,-61.785 135.72,-92.68 195.65,-92.68 26.83,0 47.9,5.778 63.17,17.328 15.3,11.559 22.96,27.157 22.96,46.813 0,19.664 -8.13,35.258 -24.35,46.812 -16.23,11.528 -48.37,23.231 -96.42,35.106 -76.14,18.078 -131.85,41.656 -167.11,70.664 -35.25,29.035 -52.88,74.582 -52.88,136.683 0,62.082 22.31,109.992 66.94,143.682 44.6,33.72 100.32,50.56 167.09,50.56 43.68,0 87.37,-7.49 131.06,-22.47 43.68,-14.97 81.77,-36.2 114.22,-63.65 L 6668.1,943.043 c -56.8,43.066 -115.46,64.607 -176.01,64.607"
       style="fill:#000000;fill-opacity:1;fill-rule:nonzero;stroke:none"
       transform="matrix(0.13333333,0,0,-0.13333333,0,264)" />
    <path
       id="path3"
       d="m 881.828,1427.68 1.856,-1.02 c 104.457,60.05 207.326,118.83 311.786,178.88 38.04,21.18 49.7,21.67 85.15,2.12 L 1566,1449.14 c 40.36,-25.33 53.15,-42.78 56.44,-82.69 v -82.74 l -0.58,-26.21 c -3.56,-185.02 -3.77,-371.18 -2.09,-555.578 1.29,-139.66 -4.77,-140.652 -142.13,-220.262 -62.5,-36.238 -111.64,-63.57 -174.16,-99.808 -31.32,-17.196 -63.99,0.89 -63.99,46.855 l -0.31,373.578 -357.352,-206.25 -357.348,206.25 -0.312,-373.578 c 0,-45.965 -32.668,-64.051 -63.992,-46.855 -62.516,36.238 -111.656,63.57 -174.16,99.808 -137.352,79.61 -143.418,80.602 -142.129,220.262 1.687,184.398 1.476,370.558 -2.082,555.578 l -0.582,26.21 v 82.74 c 3.289,39.91 16.074,57.36 56.437,82.69 l 285.379,158.52 c 35.445,19.55 47.109,19.06 85.152,-2.12 104.457,-60.05 207.325,-118.83 311.782,-178.88 z m 0.199,-396.51 295.413,164.75 -293.245,161.7 -1.871,-1.05 -0.496,0.29 -0.496,-0.29 -1.871,1.05 -293.242,-161.7 z M 523.191,1230.45 822.727,1391.6 524.922,1560.17 232.613,1399.61 Z m 717.279,0 -299.54,161.15 297.81,168.57 292.31,-160.56 -290.58,-169.16"
       style="fill:#000000;fill-opacity:1;fill-rule:evenodd;stroke:none"
       transform="matrix(0.13333333,0,0,-0.13333333,0,264)" />
    <path
       id="path4"
       d="m 882.098,596.191 -0.27,-0.156 -357.348,206.25 -0.312,-373.578 c 0,-45.965 -32.668,-64.051 -63.992,-46.855 -62.516,36.238 -111.656,63.57 -174.16,99.808 l -18.993,11.012 c -68.285,49.633 -100.839,66.812 -115.695,101.594 -7.398,24.547 -7.91,56.976 -7.441,107.656 1.687,184.398 1.476,370.558 -2.082,555.578 l -0.582,26.21 v 82.74 c 1.375,16.75 4.437,29.55 10.504,40.64 -7.997,-21.97 7.582,-43.4 31.121,-55.22 26.578,-13.34 658.203,-370.339 658.203,-370.339 4.449,-2.761 17.844,-11.929 41.047,-13.304 V 596.191"
       style="fill:#363636;fill-opacity:1;fill-rule:evenodd;stroke:none"
       transform="matrix(0.13333333,0,0,-0.13333333,0,264)" />
    <path
       id="path5"
       d="m 2.59375,1283.72 c -5.23047,206.17 -14.62505,203.39 193.97625,321.76 175.309,99.43 351.95,200.42 524.493,305.23 143.687,87.3 173.847,87.3 317.537,0 172.54,-104.81 349.19,-205.8 524.49,-305.23 208.61,-118.37 199.21,-115.59 193.98,-321.76 -5.15,-204.66 -3.55,-408.911 -2.89,-612.337 0.56,-175.82 -25.26,-200.016 -179,-289.406 L 1006.47,51.3203 c -109.263,-63.543 -144.017,-63.543 -253.275,0 L 184.48,381.977 C 30.7422,471.367 4.91797,495.563 5.48438,671.383 6.13672,874.809 7.73828,1079.06 2.59375,1283.72 Z M 756.242,1863.65 C 582.973,1759.63 404.266,1654.53 228.262,1554.77 46.0195,1451.48 59.2031,1476.13 62.8867,1284.52 66.8008,1080.82 67.0391,875.859 65.168,672.844 63.7539,519.078 70.4414,518 221.656,430.336 L 775.813,109.07 c 102.175,-59.2106 105.859,-59.2106 208.035,0 l 554.162,321.266 c 151.21,87.664 157.9,88.742 156.48,242.508 -1.87,203.015 -1.63,407.976 2.28,611.676 3.69,191.61 16.87,166.96 -165.37,270.25 -176,99.76 -354.71,204.86 -527.98,308.88 -113.514,68.14 -133.666,68.14 -247.178,0"
       style="fill:#000000;fill-opacity:1;fill-rule:nonzero;stroke:none"
       transform="matrix(0.13333333,0,0,-0.13333333,0,264)" />
  </g>
</svg>
