<?xml version="1.0" encoding="UTF-8" standalone="no"?>
<svg
   xmlns:dc="http://purl.org/dc/elements/1.1/"
   xmlns:cc="http://creativecommons.org/ns#"
   xmlns:rdf="http://www.w3.org/1999/02/22-rdf-syntax-ns#"
   xmlns:svg="http://www.w3.org/2000/svg"
   xmlns="http://www.w3.org/2000/svg"
   xmlns:sodipodi="http://sodipodi.sourceforge.net/DTD/sodipodi-0.dtd"
   xmlns:inkscape="http://www.inkscape.org/namespaces/inkscape"
   inkscape:version="1.0rc1 (09960d6f05, 2020-04-09)"
   sodipodi:docname="modules_final_white.svg"
   viewBox="0 0 901.33331 264"
   height="264"
   width="901.33331"
   xml:space="preserve"
   id="svg2"
   version="1.1"><metadata
     id="metadata8"><rdf:RDF><cc:Work
         rdf:about=""><dc:format>image/svg+xml</dc:format><dc:type
           rdf:resource="http://purl.org/dc/dcmitype/StillImage" /><dc:title></dc:title></cc:Work></rdf:RDF></metadata><defs
     id="defs6" /><sodipodi:namedview
     inkscape:current-layer="g10"
     inkscape:window-maximized="0"
     inkscape:window-y="23"
     inkscape:window-x="26"
     inkscape:cy="132"
     inkscape:cx="450.66666"
     inkscape:zoom="0.6856509"
     showgrid="false"
     id="namedview4"
     inkscape:window-height="480"
     inkscape:window-width="849"
     inkscape:pageshadow="2"
     inkscape:pageopacity="0"
     guidetolerance="10"
     gridtolerance="10"
     objecttolerance="10"
     borderopacity="1"
     bordercolor="#666666"
     pagecolor="#ffffff" /><g
     transform="matrix(1.3333333,0,0,-1.3333333,0,264)"
     inkscape:label="ink_ext_XXXXXX"
     inkscape:groupmode="layer"
     id="g10"><g
       transform="scale(0.1)"
       id="g12"><path
         inkscape:connector-curvature="0"
         id="path14"
         style="fill:#ffffff;fill-opacity:1;fill-rule:nonzero;stroke:none"
         d="m 2043.14,1577.53 v -253.28 h 176.59 v 26.78 H 2072.1 v 88.27 h 127.72 v 26.42 H 2072.1 v 85.03 h 142.91 v 26.78 z m 434.25,0 v -253.28 h 28.95 v 205.51 l 151.96,-205.51 h 29.67 v 253.28 h -28.58 v -205.89 l -151.97,205.89 z m 450.16,0 102.77,-253.28 h 30.03 l 103.48,253.28 h -30.39 l -87.56,-220.72 -87.21,220.72 z m 475.49,0 V 1324.25 H 3432 v 253.28 z m 502.98,-253.28 -59.7,86.48 c 36.55,11.58 57.18,40.16 57.18,81.77 0,53.91 -36.54,85.03 -99.86,85.03 h -96.26 v -253.28 h 28.96 v 80.33 h 67.3 c 5.78,0 11.21,0.36 16.27,0.72 l 53.19,-81.05 z m -169.68,107.11 v 119.39 h 67.3 c 45.95,0 72,-20.25 72,-58.98 0,-39.8 -26.05,-60.41 -72,-60.41 z m 540.26,146.89 c -74.18,0 -132.8,-56.08 -132.8,-127.36 0,-71.28 58.62,-127.72 132.8,-127.72 73.81,0 132.42,56.44 132.42,127.72 0,71.28 -58.61,127.36 -132.42,127.36 z m 0,-26.78 c 56.44,0 102.75,-44.51 102.75,-100.58 0,-56.08 -46.31,-101.3 -102.75,-101.3 -56.45,0 -103.48,45.22 -103.48,101.3 0,56.07 47.03,100.58 103.48,100.58 z m 383.94,26.06 v -253.28 h 28.95 v 205.51 l 151.96,-205.51 h 29.67 v 253.28 h -28.58 v -205.89 l -151.97,205.89 z m 486.34,0 v -253.28 h 27.51 v 210.59 l 91.9,-183.81 h 17.37 l 92.26,183.81 0.36,-210.59 h 26.78 v 253.28 h -35.47 l -92.25,-183.81 -92.63,183.81 z m 531.94,0 v -253.28 h 176.58 v 26.78 h -147.62 v 88.27 h 127.71 v 26.42 h -127.71 v 85.03 h 142.91 v 26.78 z m 434.24,0 v -253.28 h 28.96 v 205.51 l 151.95,-205.51 h 29.68 v 253.28 h -28.58 v -205.89 l -151.97,205.89 z m 451.99,0 v -26.78 h 82.49 v -226.5 h 28.95 v 226.5 h 82.85 v 26.78 h -194.29" /><path
         inkscape:connector-curvature="0"
         id="path16"
         style="fill:#ffffff;fill-opacity:1;fill-rule:nonzero;stroke:none"
         d="M 2634.29,878.512 2457.36,520.91 h -87.04 L 2194.3,878.512 V 466.613 h -146.03 v 654.357 h 197.53 l 168.5,-359.486 169.44,359.486 h 196.59 V 466.613 h -146.04 z m 807.88,-80.977 c 0,58.363 -18.72,108.125 -56.16,149.309 -37.46,41.207 -83.48,61.786 -138.08,61.786 -54.61,0 -100.63,-20.579 -138.09,-61.786 -37.44,-41.184 -56.16,-90.946 -56.16,-149.309 0,-58.34 18.72,-107.976 56.16,-148.84 37.46,-40.882 83.48,-61.312 138.09,-61.312 54.6,0 100.62,20.43 138.08,61.312 37.44,40.864 56.16,90.5 56.16,148.84 z m 49.61,-240.574 c -66.15,-64.613 -147.6,-96.895 -244.32,-96.895 -96.74,0 -178.19,32.282 -244.33,96.895 -66.15,64.586 -99.23,144.945 -99.23,241.043 0,96.101 33.08,176.457 99.23,241.046 66.14,64.61 147.59,96.89 244.33,96.89 96.72,0 178.17,-32.28 244.32,-96.89 66.15,-64.589 99.23,-144.945 99.23,-241.046 0,-96.098 -33.08,-176.457 -99.23,-241.043 z m 454.02,564.009 c 116.71,0 206.26,-28.54 268.67,-85.67 62.41,-57.093 93.62,-136.507 93.62,-238.237 0,-101.727 -30.43,-182.235 -91.27,-241.516 -60.84,-59.281 -153.69,-88.934 -278.5,-88.934 h -223.74 v 654.357 z m 7.49,-525.181 c 66.77,0 118.12,16.859 154,50.555 35.9,33.719 53.82,82.711 53.82,146.972 0,64.293 -17.92,113.758 -53.82,148.395 -35.88,34.633 -90.97,51.937 -165.23,51.937 h -81.45 V 595.789 Z m 654.36,39.793 c 24.34,-30.273 57.1,-45.394 98.3,-45.394 41.18,0 73.79,15.121 97.82,45.394 24.02,30.273 36.04,71.629 36.04,124.043 v 361.345 h 146.04 V 754.938 c 0,-94.86 -26.21,-167.731 -78.65,-218.579 -52.41,-50.879 -119.5,-76.293 -201.25,-76.293 -81.77,0 -149.01,25.59 -201.74,76.762 -52.74,51.176 -79.1,123.867 -79.1,218.11 v 366.032 h 146.04 V 759.625 c 0,-52.414 12.15,-93.77 36.5,-124.043 z m 529.86,-168.969 v 654.357 h 146.04 V 596.73 h 278.97 V 466.613 Z M 6141.06,1120.97 V 990.852 H 5815.27 V 856.047 h 293.01 V 731.531 H 5815.27 V 595.789 h 336.08 V 466.613 h -482.12 v 654.357 z m 351.03,-113.26 c -24.32,0 -43.52,-5.78 -57.57,-17.327 -14.04,-11.559 -21.05,-26.832 -21.05,-45.875 0,-19.039 8.58,-34.16 25.73,-45.395 17.16,-11.23 56.81,-24.496 118.89,-39.793 62.11,-15.3 110.31,-38.23 144.64,-68.804 34.32,-30.571 51.48,-75.2 51.48,-133.86 0,-58.664 -22,-106.265 -65.98,-142.761 -44.01,-36.52 -101.9,-54.77 -173.65,-54.77 -103.62,0 -196.91,38.379 -279.92,115.141 l 87.07,106.714 c 70.52,-61.785 135.72,-92.683 195.65,-92.683 26.83,0 47.9,5.781 63.17,17.332 15.3,11.555 22.96,27.152 22.96,46.812 0,19.661 -8.13,35.258 -24.35,46.813 -16.23,11.527 -48.37,23.23 -96.42,35.105 -76.14,18.075 -131.85,41.653 -167.11,70.664 -35.25,29.032 -52.88,74.579 -52.88,136.688 0,62.079 22.31,109.989 66.94,143.679 44.6,33.72 100.32,50.55 167.09,50.55 43.68,0 87.37,-7.49 131.06,-22.46 43.68,-14.98 81.77,-36.2 114.22,-63.64 L 6668.1,943.098 c -56.8,43.066 -115.46,64.612 -176.01,64.612" /><path
         inkscape:connector-curvature="0"
         id="path18"
         style="fill:#ffffff;fill-opacity:1;fill-rule:evenodd;stroke:none"
         d="m 881.828,1427.73 1.856,-1.02 c 104.457,60.06 207.326,118.83 311.786,178.88 38.04,21.19 49.7,21.68 85.15,2.13 L 1566,1449.19 c 40.36,-25.33 53.15,-42.77 56.44,-82.68 v -82.74 l -0.58,-26.21 c -3.56,-185.02 -3.77,-371.185 -2.09,-555.576 1.29,-139.664 -4.77,-140.656 -142.13,-220.269 -62.5,-36.238 -111.64,-63.567 -174.16,-99.805 -31.32,-17.191 -63.99,0.895 -63.99,46.856 l -0.31,373.578 -357.352,-206.25 -357.348,206.25 -0.312,-373.578 c 0,-45.961 -32.668,-64.047 -63.992,-46.856 -62.516,36.238 -111.656,63.567 -174.16,99.805 -137.352,79.613 -143.418,80.605 -142.129,220.269 1.687,184.391 1.476,370.556 -2.082,555.576 l -0.582,26.21 v 82.74 c 3.289,39.91 16.074,57.35 56.437,82.68 l 285.379,158.53 c 35.445,19.55 47.109,19.06 85.152,-2.13 104.457,-60.05 207.325,-118.82 311.782,-178.88 z m 0.199,-396.5 295.413,164.75 -293.245,161.7 -1.871,-1.05 -0.496,0.28 -0.496,-0.28 -1.871,1.05 -293.242,-161.7 z M 523.191,1230.5 822.727,1391.65 524.922,1560.23 232.613,1399.66 Z m 717.279,0 -299.54,161.15 297.81,168.58 292.31,-160.57 -290.58,-169.16" /><path
         inkscape:connector-curvature="0"
         id="path20"
         style="fill:#e5e5e5;fill-opacity:1;fill-rule:evenodd;stroke:none"
         d="m 882.098,596.25 -0.27,-0.156 -357.348,206.25 -0.312,-373.578 c 0,-45.961 -32.668,-64.047 -63.992,-46.856 -62.516,36.238 -111.656,63.567 -174.16,99.805 l -18.993,11.015 c -68.285,49.633 -100.839,66.809 -115.695,101.594 -7.398,24.547 -7.91,56.973 -7.441,107.66 1.687,184.391 1.476,370.556 -2.082,555.576 l -0.582,26.21 v 82.74 c 1.375,16.75 4.437,29.55 10.504,40.63 -7.997,-21.97 7.582,-43.39 31.121,-55.22 26.578,-13.33 658.203,-370.326 658.203,-370.326 4.449,-2.766 17.844,-11.938 41.047,-13.309 V 596.25" /><path
         inkscape:connector-curvature="0"
         id="path22"
         style="fill:#ffffff;fill-opacity:1;fill-rule:nonzero;stroke:none"
         d="m 2.59375,1283.78 c -5.23047,206.16 -14.62505,203.38 193.97625,321.76 175.309,99.42 351.95,200.42 524.493,305.23 143.687,87.3 173.847,87.3 317.537,0 172.54,-104.81 349.19,-205.81 524.49,-305.23 208.61,-118.38 199.21,-115.6 193.98,-321.76 -5.15,-204.66 -3.55,-408.913 -2.89,-612.339 0.56,-175.82 -25.26,-200.011 -179,-289.406 L 1006.47,51.375 c -109.263,-63.5391 -144.017,-63.5391 -253.275,0 L 184.48,382.035 C 30.7422,471.43 4.91797,495.621 5.48438,671.441 6.13672,874.867 7.73828,1079.12 2.59375,1283.78 Z M 756.242,1863.7 C 582.973,1759.68 404.266,1654.59 228.262,1554.83 46.0195,1451.53 59.2031,1476.18 62.8867,1284.57 66.8008,1080.88 67.0391,875.918 65.168,672.898 63.7539,519.133 70.4414,518.055 221.656,430.395 L 775.813,109.133 c 102.175,-59.2189 105.859,-59.2189 208.035,0 l 554.162,321.262 c 151.21,87.66 157.9,88.738 156.48,242.503 -1.87,203.02 -1.63,407.982 2.28,611.672 3.69,191.61 16.87,166.96 -165.37,270.26 -176,99.76 -354.71,204.85 -527.98,308.87 -113.514,68.15 -133.666,68.15 -247.178,0" /></g></g></svg>
