<?xml version="1.0" encoding="UTF-8" standalone="no"?>
<svg
   xmlns:dc="http://purl.org/dc/elements/1.1/"
   xmlns:cc="http://creativecommons.org/ns#"
   xmlns:rdf="http://www.w3.org/1999/02/22-rdf-syntax-ns#"
   xmlns:svg="http://www.w3.org/2000/svg"
   xmlns="http://www.w3.org/2000/svg"
   xmlns:sodipodi="http://sodipodi.sourceforge.net/DTD/sodipodi-0.dtd"
   xmlns:inkscape="http://www.inkscape.org/namespaces/inkscape"
   inkscape:version="1.0rc1 (09960d6f05, 2020-04-09)"
   sodipodi:docname="modules_icon_white.svg"
   viewBox="0 0 368 410.66666"
   height="410.66666"
   width="368"
   xml:space="preserve"
   id="svg2"
   version="1.1"><metadata
     id="metadata8"><rdf:RDF><cc:Work
         rdf:about=""><dc:format>image/svg+xml</dc:format><dc:type
           rdf:resource="http://purl.org/dc/dcmitype/StillImage" /><dc:title></dc:title></cc:Work></rdf:RDF></metadata><defs
     id="defs6" /><sodipodi:namedview
     inkscape:current-layer="g10"
     inkscape:window-maximized="0"
     inkscape:window-y="23"
     inkscape:window-x="26"
     inkscape:cy="205.33333"
     inkscape:cx="184"
     inkscape:zoom="0.68912339"
     showgrid="false"
     id="namedview4"
     inkscape:window-height="480"
     inkscape:window-width="845"
     inkscape:pageshadow="2"
     inkscape:pageopacity="0"
     guidetolerance="10"
     gridtolerance="10"
     objecttolerance="10"
     borderopacity="1"
     bordercolor="#666666"
     pagecolor="#ffffff" /><g
     transform="matrix(1.3333333,0,0,-1.3333333,0,410.66667)"
     inkscape:label="ink_ext_XXXXXX"
     inkscape:groupmode="layer"
     id="g10"><g
       transform="scale(0.1)"
       id="g12"><path
         inkscape:connector-curvature="0"
         id="path14"
         style="fill:#ffffff;fill-opacity:1;fill-rule:evenodd;stroke:none"
         d="m 1383.11,2222.29 2.89,-1.59 c 162.79,93.58 323.11,185.18 485.9,278.76 59.28,33.03 77.46,33.78 132.7,3.32 l 444.74,-247.05 c 62.91,-39.48 82.83,-66.66 87.96,-128.87 v -128.95 l -0.91,-40.84 c -5.54,-288.33 -5.87,-578.46 -3.25,-865.82 2.02,-217.656 -7.44,-219.203 -221.5,-343.27 -97.4,-56.48 -173.98,-99.066 -271.41,-155.542 -48.82,-26.793 -99.73,1.39 -99.73,73.023 l -0.48,582.189 -556.91,-321.42 -556.903,321.42 -0.484,-582.189 c 0,-71.633 -50.91,-99.816 -99.727,-73.023 C 628.566,648.914 551.988,691.5 454.578,747.98 240.527,872.047 231.07,873.594 233.082,1091.25 c 2.629,287.36 2.297,577.49 -3.25,865.82 l -0.902,40.84 v 128.95 c 5.125,62.21 25.047,89.39 87.953,128.87 l 444.742,247.05 c 55.242,30.46 73.418,29.71 132.703,-3.32 162.792,-93.58 323.102,-185.18 485.892,-278.76 z m 0.31,-617.94 460.38,256.75 -457,252 -2.91,-1.63 -0.78,0.44 -0.77,-0.44 -2.92,1.63 -456.994,-252 z M 824.199,1914.91 1291,2166.05 826.895,2428.76 371.352,2178.53 Z m 1117.831,0 -466.81,251.14 464.11,262.71 455.55,-250.23 -452.85,-263.62" /><path
         inkscape:connector-curvature="0"
         id="path16"
         style="fill:#e5e5e5;fill-opacity:1;fill-rule:evenodd;stroke:none"
         d="m 1383.53,926.473 -0.42,-0.243 -556.903,321.42 -0.484,-582.189 c 0,-71.633 -50.91,-99.816 -99.727,-73.023 -97.43,56.476 -174.008,99.062 -271.418,155.542 l -29.598,17.161 c -106.421,77.355 -157.156,104.125 -180.3,158.328 -11.532,38.258 -12.328,88.791 -11.598,167.781 2.629,287.36 2.297,577.49 -3.25,865.82 l -0.902,40.84 v 128.95 c 2.14,26.11 6.914,46.06 16.367,63.33 -12.457,-34.24 11.816,-67.64 48.504,-86.05 C 335.215,2083.35 1319.57,1527 1319.57,1527 c 6.93,-4.31 27.81,-18.6 63.96,-20.74 V 926.473" /><path
         inkscape:connector-curvature="0"
         id="path18"
         style="fill:#ffffff;fill-opacity:1;fill-rule:nonzero;stroke:none"
         d="m 12.8867,1997.94 c -8.14842,321.29 -22.79295,316.96 302.2933,501.44 273.207,154.94 548.492,312.34 817.39,475.68 223.93,136.05 270.93,136.05 494.86,0 268.9,-163.34 544.18,-320.74 817.38,-475.68 325.1,-184.48 310.45,-180.15 302.3,-501.44 -8.02,-318.95 -5.52,-637.26 -4.5,-954.29 0.88,-274.002 -39.37,-311.705 -278.95,-451.013 L 1577.35,77.3203 c -170.27,-99.0195 -224.43,-99.0195 -394.71,0 L 296.344,592.637 C 56.7539,731.945 16.5078,769.648 17.3945,1043.65 c 1.0157,317.03 3.5118,635.34 -4.5078,954.29 z M 1187.39,2901.71 C 917.363,2739.61 638.859,2575.82 364.57,2420.35 80.5625,2259.37 101.105,2297.78 106.848,1999.18 c 6.097,-317.45 6.472,-636.87 3.554,-953.26 C 108.195,806.289 118.621,804.613 354.277,668 L 1217.89,167.332 c 159.24,-92.2851 164.98,-92.2851 324.21,0 L 2405.72,668 c 235.66,136.613 246.08,138.289 243.87,377.92 -2.91,316.39 -2.54,635.81 3.56,953.26 5.74,298.6 26.28,260.19 -257.72,421.17 -274.29,155.47 -552.8,319.26 -822.82,481.36 -176.91,106.2 -208.31,106.2 -385.22,0" /></g></g></svg>
