<?xml version="1.0" encoding="UTF-8" standalone="no"?>
<!-- Created with Inkscape (http://www.inkscape.org/) -->

<svg
   version="1.1"
   id="svg1"
   width="368"
   height="410.66666"
   viewBox="0 0 368 410.66666"
   sodipodi:docname="modules_icon_black.svg"
   inkscape:version="1.4 (e7c3feb100, 2024-10-09)"
   xmlns:inkscape="http://www.inkscape.org/namespaces/inkscape"
   xmlns:sodipodi="http://sodipodi.sourceforge.net/DTD/sodipodi-0.dtd"
   xmlns="http://www.w3.org/2000/svg"
   xmlns:svg="http://www.w3.org/2000/svg">
  <defs
     id="defs1" />
  <sodipodi:namedview
     id="namedview1"
     pagecolor="#ffffff"
     bordercolor="#666666"
     borderopacity="1.0"
     inkscape:showpageshadow="2"
     inkscape:pageopacity="0.0"
     inkscape:pagecheckerboard="0"
     inkscape:deskcolor="#d1d1d1"
     inkscape:zoom="1.948052"
     inkscape:cx="183.77333"
     inkscape:cy="205.33333"
     inkscape:window-width="1920"
     inkscape:window-height="1011"
     inkscape:window-x="0"
     inkscape:window-y="0"
     inkscape:window-maximized="1"
     inkscape:current-layer="g1">
    <inkscape:page
       x="0"
       y="0"
       inkscape:label="1"
       id="page1"
       width="368"
       height="410.66666"
       margin="0"
       bleed="0" />
  </sodipodi:namedview>
  <g
     id="g1"
     inkscape:groupmode="layer"
     inkscape:label="1">
    <path
       id="path1"
       d="m 1383.11,2222.27 2.9,-1.59 c 162.79,93.59 323.1,185.19 485.89,278.77 59.28,33.02 77.46,33.77 132.7,3.32 l 444.74,-247.06 c 62.91,-39.47 82.83,-66.66 87.96,-128.86 V 1997.9 l -0.91,-40.84 c -5.54,-288.33 -5.87,-578.46 -3.25,-865.83 2.02,-217.652 -7.44,-219.195 -221.49,-343.265 -97.41,-56.481 -173.99,-99.063 -271.42,-155.543 -48.81,-26.793 -99.73,1.391 -99.73,73.023 l -0.48,582.195 -556.91,-321.425 -556.899,321.425 -0.488,-582.195 c 0,-71.632 -50.914,-99.816 -99.727,-73.023 -97.43,56.48 -174.008,99.062 -271.418,155.543 -214.055,124.07 -223.508,125.613 -221.496,343.265 2.629,287.37 2.297,577.5 -3.246,865.83 l -0.906,40.84 v 128.95 c 5.121,62.2 25.047,89.39 87.953,128.86 l 444.742,247.06 c 55.242,30.45 73.422,29.7 132.703,-3.32 162.792,-93.58 323.102,-185.18 485.892,-278.77 z m 0.31,-617.93 460.38,256.75 -457,252 -2.91,-1.64 -0.78,0.44 -0.77,-0.44 -2.91,1.64 -457.008,-252 z m -559.221,310.55 466.811,251.15 -464.115,262.71 -455.543,-250.24 z m 1117.831,0 -466.81,251.15 464.11,262.71 455.55,-250.24 -452.85,-263.62"
       style="fill:#000000;fill-opacity:1;fill-rule:evenodd;stroke:none"
       transform="matrix(0.13333333,0,0,-0.13333333,0,410.66667)" />
    <path
       id="path2"
       d="m 1383.53,926.457 -0.42,-0.242 -556.899,321.425 -0.488,-582.195 c 0,-71.632 -50.914,-99.816 -99.727,-73.023 -97.43,56.48 -174.008,99.062 -271.418,155.543 l -29.594,17.164 C 318.563,842.48 267.824,869.25 244.676,923.453 c -11.528,38.258 -12.324,88.797 -11.594,167.777 2.629,287.37 2.297,577.5 -3.246,865.83 l -0.906,40.84 v 128.95 c 2.14,26.11 6.91,46.05 16.363,63.33 -12.453,-34.24 11.82,-67.64 48.508,-86.06 41.414,-20.78 1025.769,-577.13 1025.769,-577.13 6.93,-4.31 27.81,-18.6 63.96,-20.74 V 926.457"
       style="fill:#363636;fill-opacity:1;fill-rule:evenodd;stroke:none"
       transform="matrix(0.13333333,0,0,-0.13333333,0,410.66667)" />
    <path
       id="path3"
       d="m 12.8867,1997.92 c -8.15232,321.29 -22.79686,316.97 302.2973,501.44 273.203,154.95 548.488,312.35 817.386,475.69 223.93,136.04 270.93,136.04 494.86,0 268.89,-163.34 544.18,-320.74 817.39,-475.69 325.08,-184.47 310.44,-180.15 302.29,-501.44 -8.02,-318.95 -5.52,-637.26 -4.51,-954.29 0.89,-273.997 -39.36,-311.7 -278.94,-451.009 L 1577.36,77.3086 c -170.28,-99.0195 -224.44,-99.0195 -394.72,0 L 296.34,592.621 C 56.7539,731.93 16.5117,769.633 17.3906,1043.63 c 1.0196,317.03 3.5117,635.34 -4.5039,954.29 z M 1187.39,2901.7 C 917.367,2739.59 638.859,2575.81 364.57,2420.33 80.5664,2259.36 101.105,2297.77 106.848,1999.16 c 6.097,-317.45 6.472,-636.86 3.558,-953.25 -2.211,-239.633 8.215,-241.308 243.871,-377.926 L 1217.89,167.316 c 159.24,-92.2847 164.98,-92.2847 324.21,0 l 863.62,500.668 c 235.66,136.618 246.08,138.293 243.87,377.926 -2.91,316.39 -2.54,635.8 3.56,953.25 5.74,298.61 26.28,260.2 -257.72,421.17 -274.29,155.48 -552.8,319.26 -822.82,481.37 -176.91,106.19 -208.32,106.19 -385.22,0"
       style="fill:#000000;fill-opacity:1;fill-rule:nonzero;stroke:none"
       transform="matrix(0.13333333,0,0,-0.13333333,0,410.66667)" />
  </g>
</svg>
