<?xml version="1.0" encoding="UTF-8" standalone="no"?>
<svg
   xmlns:dc="http://purl.org/dc/elements/1.1/"
   xmlns:cc="http://creativecommons.org/ns#"
   xmlns:rdf="http://www.w3.org/1999/02/22-rdf-syntax-ns#"
   xmlns:svg="http://www.w3.org/2000/svg"
   xmlns="http://www.w3.org/2000/svg"
   xmlns:sodipodi="http://sodipodi.sourceforge.net/DTD/sodipodi-0.dtd"
   xmlns:inkscape="http://www.inkscape.org/namespaces/inkscape"
   inkscape:version="1.0rc1 (09960d6f05, 2020-04-09)"
   sodipodi:docname="modules_red2.svg"
   viewBox="0 0 901.33331 264"
   height="264"
   width="901.33331"
   xml:space="preserve"
   id="svg2"
   version="1.1"><metadata
     id="metadata8"><rdf:RDF><cc:Work
         rdf:about=""><dc:format>image/svg+xml</dc:format><dc:type
           rdf:resource="http://purl.org/dc/dcmitype/StillImage" /><dc:title></dc:title></cc:Work></rdf:RDF></metadata><defs
     id="defs6" /><sodipodi:namedview
     inkscape:current-layer="g10"
     inkscape:window-maximized="0"
     inkscape:window-y="23"
     inkscape:window-x="26"
     inkscape:cy="132"
     inkscape:cx="450.66666"
     inkscape:zoom="0.6856509"
     showgrid="false"
     id="namedview4"
     inkscape:window-height="480"
     inkscape:window-width="849"
     inkscape:pageshadow="2"
     inkscape:pageopacity="0"
     guidetolerance="10"
     gridtolerance="10"
     objecttolerance="10"
     borderopacity="1"
     bordercolor="#666666"
     pagecolor="#ffffff" /><g
     transform="matrix(1.3333333,0,0,-1.3333333,0,264)"
     inkscape:label="ink_ext_XXXXXX"
     inkscape:groupmode="layer"
     id="g10"><g
       transform="scale(0.1)"
       id="g12"><path
         inkscape:connector-curvature="0"
         id="path14"
         style="fill:#c41e1d;fill-opacity:1;fill-rule:nonzero;stroke:none"
         d="m 2043.14,1577.45 v -253.27 h 176.59 v 26.77 H 2072.1 v 88.28 h 127.72 v 26.42 H 2072.1 v 85.03 h 142.91 v 26.77 z m 434.25,0 v -253.27 h 28.95 v 205.51 l 151.96,-205.51 h 29.67 v 253.27 h -28.58 v -205.88 l -151.97,205.88 z m 450.16,0 102.77,-253.27 h 30.03 l 103.48,253.27 h -30.39 l -87.56,-220.71 -87.21,220.71 z m 475.49,0 V 1324.18 H 3432 v 253.27 z m 502.98,-253.27 -59.7,86.48 c 36.55,11.57 57.18,40.15 57.18,81.76 0,53.92 -36.54,85.03 -99.86,85.03 h -96.26 v -253.27 h 28.96 v 80.33 h 67.3 c 5.78,0 11.21,0.36 16.27,0.72 l 53.19,-81.05 z m -169.68,107.1 v 119.4 h 67.3 c 45.95,0 72,-20.26 72,-58.98 0,-39.8 -26.05,-60.42 -72,-60.42 z m 540.26,146.9 c -74.18,0 -132.8,-56.08 -132.8,-127.37 0,-71.27 58.62,-127.71 132.8,-127.71 73.81,0 132.42,56.44 132.42,127.71 0,71.29 -58.61,127.37 -132.42,127.37 z m 0,-26.78 c 56.44,0 102.75,-44.51 102.75,-100.59 0,-56.07 -46.31,-101.29 -102.75,-101.29 -56.45,0 -103.48,45.22 -103.48,101.29 0,56.08 47.03,100.59 103.48,100.59 z m 383.94,26.05 v -253.27 h 28.95 v 205.51 l 151.96,-205.51 h 29.67 v 253.27 h -28.58 v -205.88 l -151.97,205.88 z m 486.34,0 v -253.27 h 27.51 v 210.59 l 91.9,-183.82 h 17.37 l 92.26,183.82 0.36,-210.59 h 26.78 v 253.27 h -35.47 l -92.25,-183.81 -92.63,183.81 z m 531.94,0 v -253.27 h 176.58 v 26.77 h -147.62 v 88.28 h 127.71 v 26.42 h -127.71 v 85.03 h 142.91 v 26.77 z m 434.24,0 v -253.27 h 28.96 v 205.51 l 151.95,-205.51 h 29.68 v 253.27 h -28.58 v -205.88 l -151.97,205.88 z m 451.99,0 v -26.77 h 82.49 v -226.5 h 28.95 v 226.5 h 82.85 v 26.77 h -194.29" /><path
         inkscape:connector-curvature="0"
         id="path16"
         style="fill:#c41e1d;fill-opacity:1;fill-rule:nonzero;stroke:none"
         d="M 2634.29,878.438 2457.36,520.844 h -87.04 L 2194.3,878.438 V 466.539 h -146.03 v 654.351 h 197.53 l 168.5,-359.476 169.44,359.476 h 196.59 V 466.539 h -146.04 z m 807.88,-80.977 c 0,58.367 -18.72,108.125 -56.16,149.305 -37.46,41.211 -83.48,61.784 -138.08,61.784 -54.61,0 -100.63,-20.573 -138.09,-61.784 -37.44,-41.18 -56.16,-90.938 -56.16,-149.305 0,-58.336 18.72,-107.977 56.16,-148.836 37.46,-40.883 83.48,-61.312 138.09,-61.312 54.6,0 100.62,20.429 138.08,61.312 37.44,40.859 56.16,90.5 56.16,148.836 z m 49.61,-240.57 c -66.15,-64.618 -147.6,-96.899 -244.32,-96.899 -96.74,0 -178.19,32.281 -244.33,96.899 -66.15,64.586 -99.23,144.937 -99.23,241.047 0,96.093 33.08,176.453 99.23,241.042 66.14,64.61 147.59,96.89 244.33,96.89 96.72,0 178.17,-32.28 244.32,-96.89 66.15,-64.589 99.23,-144.949 99.23,-241.042 0,-96.11 -33.08,-176.461 -99.23,-241.047 z m 454.02,563.999 c 116.71,0 206.26,-28.53 268.67,-85.66 62.41,-57.097 93.62,-136.511 93.62,-238.238 0,-101.726 -30.43,-182.234 -91.27,-241.515 -60.84,-59.289 -153.69,-88.938 -278.5,-88.938 h -223.74 v 654.351 z m 7.49,-525.179 c 66.77,0 118.12,16.859 154,50.555 35.9,33.726 53.82,82.711 53.82,146.984 0,64.289 -17.92,113.75 -53.82,148.383 -35.88,34.64 -90.97,51.945 -165.23,51.945 h -81.45 V 595.711 Z m 654.36,39.805 c 24.34,-30.282 57.1,-45.407 98.3,-45.407 41.18,0 73.79,15.125 97.82,45.407 24.02,30.265 36.04,71.625 36.04,124.031 v 361.343 h 146.04 V 754.867 c 0,-94.859 -26.21,-167.726 -78.65,-218.586 -52.41,-50.875 -119.5,-76.289 -201.25,-76.289 -81.77,0 -149.01,25.586 -201.74,76.766 -52.74,51.172 -79.1,123.867 -79.1,218.109 v 366.023 h 146.04 V 759.547 c 0,-52.406 12.15,-93.766 36.5,-124.031 z m 529.86,-168.977 v 654.351 h 146.04 V 596.656 h 278.97 V 466.539 Z M 6141.06,1120.89 V 990.773 H 5815.27 V 855.977 h 293.01 V 731.461 h -293.01 v -135.75 h 336.08 V 466.539 h -482.12 v 654.351 z m 351.03,-113.25 c -24.32,0 -43.52,-5.78 -57.57,-17.335 -14.04,-11.555 -21.05,-26.821 -21.05,-45.867 0,-19.04 8.58,-34.165 25.73,-45.391 17.16,-11.234 56.81,-24.5 118.89,-39.797 62.11,-15.297 110.31,-38.234 144.64,-68.805 34.32,-30.57 51.48,-75.203 51.48,-133.867 0,-58.656 -22,-106.258 -65.98,-142.758 -44.01,-36.523 -101.9,-54.765 -173.65,-54.765 -103.62,0 -196.91,38.375 -279.92,115.14 l 87.07,106.711 c 70.52,-61.781 135.72,-92.679 195.65,-92.679 26.83,0 47.9,5.773 63.17,17.336 15.3,11.546 22.96,27.14 22.96,46.804 0,19.664 -8.13,35.258 -24.35,46.813 -16.23,11.531 -48.37,23.234 -96.42,35.109 -76.14,18.07 -131.85,41.656 -167.11,70.656 -35.25,29.039 -52.88,74.578 -52.88,136.688 0,62.087 22.31,109.997 66.94,143.687 44.6,33.72 100.32,50.55 167.09,50.55 43.68,0 87.37,-7.49 131.06,-22.46 43.68,-14.98 81.77,-36.21 114.22,-63.65 L 6668.1,943.023 c -56.8,43.063 -115.46,64.617 -176.01,64.617" /><path
         inkscape:connector-curvature="0"
         id="path18"
         style="fill:#c41e1d;fill-opacity:1;fill-rule:evenodd;stroke:none"
         d="m 881.828,1427.66 1.856,-1.01 c 104.457,60.05 207.326,118.83 311.786,178.87 38.04,21.19 49.7,21.68 85.15,2.13 L 1566,1449.13 c 40.36,-25.33 53.15,-42.79 56.44,-82.69 v -82.75 l -0.58,-26.21 c -3.56,-185.01 -3.77,-371.175 -2.09,-555.574 1.29,-139.656 -4.77,-140.648 -142.13,-220.258 -62.5,-36.25 -111.64,-63.57 -174.16,-99.812 -31.32,-17.195 -63.99,0.891 -63.99,46.852 l -0.31,373.585 -357.352,-206.25 -357.348,206.25 -0.312,-373.585 c 0,-45.961 -32.668,-64.047 -63.992,-46.852 -62.516,36.242 -111.656,63.562 -174.16,99.812 -137.352,79.61 -143.418,80.602 -142.129,220.258 1.687,184.399 1.476,370.564 -2.082,555.574 l -0.582,26.21 v 82.75 c 3.289,39.9 16.074,57.36 56.437,82.69 l 285.379,158.52 c 35.445,19.55 47.109,19.06 85.152,-2.13 104.457,-60.04 207.325,-118.82 311.782,-178.87 z m 0.199,-396.5 295.413,164.75 -293.245,161.7 -1.871,-1.06 -0.496,0.29 -0.496,-0.29 -1.871,1.06 -293.242,-161.7 z m -358.836,199.27 299.536,161.15 -297.805,168.58 -292.309,-160.57 z m 717.279,0 -299.54,161.15 297.81,168.58 292.31,-160.57 -290.58,-169.16" /><path
         inkscape:connector-curvature="0"
         id="path20"
         style="fill:#a82218;fill-opacity:1;fill-rule:evenodd;stroke:none"
         d="m 882.098,596.18 -0.27,-0.157 -357.348,206.25 -0.312,-373.585 c 0,-45.961 -32.668,-64.047 -63.992,-46.852 -62.516,36.242 -111.656,63.562 -174.16,99.812 l -18.993,11.008 c -68.285,49.633 -100.839,66.813 -115.695,101.594 -7.398,24.547 -7.91,56.977 -7.441,107.656 1.687,184.399 1.476,370.564 -2.082,555.574 l -0.582,26.21 v 82.75 c 1.375,16.75 4.437,29.54 10.504,40.63 -7.997,-21.97 7.582,-43.4 31.121,-55.22 26.578,-13.33 658.203,-370.334 658.203,-370.334 4.449,-2.758 17.844,-11.93 41.047,-13.305 V 596.18" /><path
         inkscape:connector-curvature="0"
         id="path22"
         style="fill:#c41e1d;fill-opacity:1;fill-rule:nonzero;stroke:none"
         d="m 2.59375,1283.7 c -5.23047,206.17 -14.62505,203.39 193.97625,321.77 175.309,99.42 351.95,200.42 524.493,305.23 143.687,87.29 173.847,87.29 317.537,0 172.54,-104.81 349.19,-205.81 524.49,-305.23 208.61,-118.38 199.21,-115.6 193.98,-321.77 -5.15,-204.65 -3.55,-408.903 -2.89,-612.333 0.56,-175.82 -25.26,-200.015 -179,-289.406 L 1006.47,51.3047 c -109.263,-63.5391 -144.017,-63.5391 -253.275,0 L 184.48,381.961 C 30.7422,471.352 4.91797,495.547 5.48438,671.367 6.13672,874.797 7.73828,1079.05 2.59375,1283.7 Z M 756.242,1863.63 C 582.973,1759.62 404.266,1654.52 228.262,1554.76 46.0195,1451.46 59.2031,1476.11 62.8867,1284.5 66.8008,1080.8 67.0391,875.844 65.168,672.828 63.7539,519.063 70.4414,517.984 221.656,430.32 L 775.813,109.063 c 102.175,-59.2192 105.859,-59.2192 208.035,0 L 1538.01,430.32 c 151.21,87.664 157.9,88.743 156.48,242.508 -1.87,203.016 -1.63,407.972 2.28,611.672 3.69,191.61 16.87,166.96 -165.37,270.26 -176,99.76 -354.71,204.86 -527.98,308.87 -113.514,68.15 -133.666,68.15 -247.178,0" /></g></g></svg>
