<?xml version="1.0" encoding="UTF-8" standalone="no"?>
<!-- Created with Inkscape (http://www.inkscape.org/) -->

<svg
   version="1.1"
   id="svg1"
   width="368"
   height="410.66666"
   viewBox="0 0 368 410.66666"
   sodipodi:docname="modules_icon_red_cmyk.svg"
   inkscape:version="1.3 (0e150ed6c4, 2023-07-21)"
   xmlns:inkscape="http://www.inkscape.org/namespaces/inkscape"
   xmlns:sodipodi="http://sodipodi.sourceforge.net/DTD/sodipodi-0.dtd"
   xmlns="http://www.w3.org/2000/svg"
   xmlns:svg="http://www.w3.org/2000/svg">
  <defs
     id="defs1" />
  <sodipodi:namedview
     id="namedview1"
     pagecolor="#ffffff"
     bordercolor="#666666"
     borderopacity="1.0"
     inkscape:showpageshadow="2"
     inkscape:pageopacity="0.0"
     inkscape:pagecheckerboard="0"
     inkscape:deskcolor="#d1d1d1"
     inkscape:zoom="1.9602273"
     inkscape:cx="184.16231"
     inkscape:cy="205.33333"
     inkscape:window-width="1920"
     inkscape:window-height="1011"
     inkscape:window-x="0"
     inkscape:window-y="0"
     inkscape:window-maximized="1"
     inkscape:current-layer="g1">
    <inkscape:page
       x="0"
       y="0"
       inkscape:label="1"
       id="page1"
       width="368"
       height="410.66666"
       margin="0"
       bleed="0" />
  </sodipodi:namedview>
  <g
     id="g1"
     inkscape:groupmode="layer"
     inkscape:label="1">
    <path
       id="path1"
       d="m 1383.11,2222.25 2.89,-1.59 c 162.8,93.59 323.11,185.19 485.9,278.78 59.28,33.02 77.46,33.77 132.7,3.31 l 444.74,-247.05 c 62.91,-39.47 82.83,-66.66 87.96,-128.86 v -128.95 l -0.91,-40.84 c -5.54,-288.34 -5.87,-578.47 -3.25,-865.83 2.01,-217.654 -7.44,-219.2 -221.49,-343.271 -97.41,-56.476 -173.99,-99.062 -271.42,-155.543 -48.82,-26.793 -99.73,1.395 -99.73,73.024 l -0.48,582.2 -556.91,-321.427 -556.903,321.427 -0.484,-582.2 c 0,-71.629 -50.914,-99.817 -99.727,-73.024 -97.43,56.481 -174.008,99.067 -271.418,155.543 C 240.523,872.02 231.07,873.566 233.082,1091.22 c 2.625,287.36 2.297,577.49 -3.246,865.83 l -0.906,40.84 v 128.95 c 5.125,62.2 25.047,89.39 87.953,128.86 l 444.742,247.05 c 55.238,30.46 73.418,29.71 132.703,-3.31 162.792,-93.59 323.102,-185.19 485.892,-278.78 z m 0.31,-617.93 460.38,256.75 -457,252.01 -2.92,-1.64 -0.77,0.44 -0.77,-0.44 -2.92,1.64 -456.994,-252.01 z M 824.199,1914.88 1291,2166.02 826.895,2428.73 371.352,2178.5 Z m 1117.831,0 -466.81,251.14 464.11,262.71 455.54,-250.23 -452.84,-263.62"
       style="fill:#c41e1d;fill-opacity:1;fill-rule:evenodd;stroke:none"
       transform="matrix(0.13333333,0,0,-0.13333333,0,410.66667)" />
    <path
       id="path2"
       d="m 1383.53,926.441 -0.42,-0.238 -556.903,321.427 -0.484,-582.2 c 0,-71.629 -50.914,-99.817 -99.727,-73.024 -97.43,56.481 -174.008,99.067 -271.418,155.543 l -29.598,17.164 c -106.417,77.352 -157.156,104.125 -180.304,158.328 -11.528,38.258 -12.324,88.789 -11.594,167.779 2.625,287.36 2.297,577.49 -3.246,865.83 l -0.906,40.84 v 128.95 c 2.14,26.1 6.914,46.05 16.367,63.32 -12.461,-34.23 11.816,-67.63 48.504,-86.05 41.414,-20.79 1025.769,-577.14 1025.769,-577.14 6.93,-4.31 27.81,-18.6 63.96,-20.74 V 926.441"
       style="fill:#a82218;fill-opacity:1;fill-rule:evenodd;stroke:none"
       transform="matrix(0.13333333,0,0,-0.13333333,0,410.66667)" />
    <path
       id="path3"
       d="m 12.8867,1997.91 c -8.15232,321.29 -22.79295,316.96 302.2973,501.44 273.207,154.95 548.488,312.35 817.386,475.69 223.93,136.04 270.93,136.04 494.86,0 268.9,-163.34 544.18,-320.74 817.38,-475.69 325.1,-184.48 310.45,-180.15 302.3,-501.44 -8.02,-318.95 -5.52,-637.26 -4.5,-954.29 0.88,-274.003 -39.36,-311.706 -278.95,-451.015 L 1577.36,77.293 c -170.28,-99.0196 -224.44,-99.0196 -394.72,0 L 296.34,592.605 C 56.7539,731.914 16.5078,769.617 17.3906,1043.62 c 1.0157,317.03 3.5157,635.34 -4.5039,954.29 z M 1187.39,2901.68 C 917.367,2739.58 638.859,2575.8 364.57,2420.32 80.5625,2259.34 101.105,2297.75 106.848,1999.14 c 6.097,-317.44 6.472,-636.85 3.558,-953.25 -2.211,-239.628 8.215,-241.304 243.871,-377.921 L 1217.89,167.301 c 159.24,-92.2815 164.98,-92.2815 324.22,0 l 863.61,500.668 c 235.66,136.617 246.08,138.293 243.87,377.921 -2.91,316.4 -2.54,635.81 3.56,953.25 5.74,298.61 26.28,260.2 -257.72,421.18 -274.29,155.48 -552.8,319.26 -822.82,481.36 -176.91,106.2 -208.32,106.2 -385.22,0"
       style="fill:#c41e1d;fill-opacity:1;fill-rule:nonzero;stroke:none"
       transform="matrix(0.13333333,0,0,-0.13333333,0,410.66667)" />
  </g>
</svg>
